<?xml version="1.0" encoding="utf-8"?>
<!-- Generator: Adobe Illustrator 20.1.0, SVG Export Plug-In . SVG Version: 6.00 Build 0)  -->
<svg version="1.1" id="Layer_1" xmlns="http://www.w3.org/2000/svg" xmlns:xlink="http://www.w3.org/1999/xlink" x="0px" y="0px"
	 viewBox="0 0 655.3 62.7" style="enable-background:new 0 0 655.3 62.7;" xml:space="preserve">
<style type="text/css">
	.st0{fill:#FFFFFF;}
</style>
<g>
	<polygon class="st0" points="21.5,59.3 37.8,59.3 41,54.3 18.3,54.3 	"/>
	<polygon class="st0" points="16.3,50.3 43.2,50.3 46.2,45.3 13.3,45.3 	"/>
	<path class="st0" d="M44.3,6.3c-0.6-1.1-2.1-2-3.3-2H18.5c-1.2,0-2.7,0.9-3.3,2L4,25.8c-0.6,1.1-0.6,2.4,0,3.4l7.2,12.1h5.9
		L9.2,27.9l10.3-17.5h20.6l10.3,17.5l-7.9,13.5h5.9l7.2-12.1c0.6-1.1,0.6-2.6,0-3.7L44.3,6.3z"/>
	<polygon class="st0" points="107.3,34.2 93.9,15.3 89.3,15.3 89.3,40.3 93.3,40.3 93.3,22.6 107.6,40.3 111.3,40.3 111.3,15.3 
		107.3,15.3 	"/>
	<polygon class="st0" points="122.3,40.3 139.3,40.3 139.3,36.3 126.3,36.3 126.3,29.3 137.3,29.3 137.3,26.3 126.3,26.3 
		126.3,19.3 139.3,19.3 139.3,15.3 122.3,15.3 	"/>
	<polygon class="st0" points="145.3,19.3 153.3,19.3 153.3,40.3 157.3,40.3 157.3,19.3 164.3,19.3 164.3,15.3 145.3,15.3 	"/>
	<polygon class="st0" points="194.7,32.8 189.3,15.3 185.7,15.3 180.3,32.8 174.2,15.3 169.8,15.3 178.2,40.3 182.3,40.3 
		187.4,23.3 187.6,23.3 192.7,40.3 196.8,40.3 205.2,15.3 200.8,15.3 	"/>
	<path class="st0" d="M223.4,15.5c-3.6,0-6.6,1.2-9.1,3.6c-2.4,2.4-3.7,5.4-3.7,8.9c0,3.6,1.2,6.5,3.7,8.9c2.4,2.4,5.5,3.6,9.1,3.6
		c3.6,0,6.6-1.2,9.1-3.6c2.4-2.4,3.7-5.4,3.7-8.9c0-3.6-1.2-6.5-3.7-8.9C230,16.7,227,15.5,223.4,15.5z M229.5,34.2
		c-1.7,1.7-3.7,2.6-6.1,2.6c-2.4,0-4.4-0.9-6.1-2.6s-2.5-3.8-2.5-6.2c0-2.4,0.8-4.5,2.5-6.2s3.7-2.6,6.1-2.6c2.4,0,4.4,0.9,6.1,2.6
		c1.7,1.7,2.5,3.8,2.5,6.2C232,30.4,231.1,32.5,229.5,34.2z"/>
	<path class="st0" d="M264.1,23.9c0-2.7-0.8-5.1-2.4-6.4c-1.6-1.2-4.2-2.2-7.9-2.2h-9.5v25h4v-9h5.9l5.8,9h5.2l-6.3-8.8
		C262.4,30.5,264.1,27.9,264.1,23.9z M254,28.3h-5.6v-9h5.7c2.2,0,3.7,0.5,4.6,1.1c0.9,0.6,1.3,1.8,1.3,3.4c0,1.6-0.4,2.7-1.2,3.4
		C257.8,28,256.3,28.3,254,28.3z"/>
	<polygon class="st0" points="293.8,15.3 288.6,15.3 277.3,27.9 277.3,15.3 273.3,15.3 273.3,40.3 277.3,40.3 277.3,33.5 281,29.7 
		289.1,40.3 294,40.3 284.1,26.3 	"/>
	<path class="st0" d="M325.4,15.5c-3.6,0-6.6,1.2-9.1,3.6c-2.4,2.4-3.7,5.4-3.7,8.9c0,3.6,1.2,6.5,3.7,8.9c2.4,2.4,5.5,3.6,9.1,3.6
		c3.6,0,6.6-1.2,9.1-3.6c2.4-2.4,3.7-5.4,3.7-8.9c0-3.6-1.2-6.5-3.7-8.9C332.1,16.7,329.1,15.5,325.4,15.5z M331.5,34.2
		c-1.7,1.7-3.7,2.6-6.1,2.6c-2.4,0-4.4-0.9-6.1-2.6c-1.7-1.7-2.5-3.8-2.5-6.2c0-2.4,0.8-4.5,2.5-6.2c1.7-1.7,3.7-2.6,6.1-2.6
		c2.4,0,4.4,0.9,6.1,2.6c1.7,1.7,2.5,3.8,2.5,6.2C334,30.4,333.2,32.5,331.5,34.2z"/>
	<polygon class="st0" points="346.3,40.3 350.3,40.3 350.3,30.3 361.3,30.3 361.3,26.3 350.3,26.3 350.3,19.3 362.9,19.3 363,15.3 
		346.3,15.3 	"/>
	<rect x="383.3" y="15.3" class="st0" width="5" height="25"/>
	<polygon class="st0" points="416.3,34.2 402.5,15.3 398.3,15.3 398.3,40.3 402.3,40.3 402.3,22.6 416.2,40.3 420.3,40.3 
		420.3,15.3 416.3,15.3 	"/>
	<polygon class="st0" points="448.3,34.2 434.9,15.3 430.3,15.3 430.3,40.3 434.3,40.3 434.3,22.6 448.6,40.3 452.3,40.3 
		452.3,15.3 448.3,15.3 	"/>
	<path class="st0" d="M474.4,15.5c-3.6,0-6.6,1.2-9.1,3.6c-2.4,2.4-3.7,5.4-3.7,8.9c0,3.6,1.2,6.5,3.7,8.9c2.4,2.4,5.5,3.6,9.1,3.6
		c3.6,0,6.6-1.2,9.1-3.6c2.4-2.4,3.7-5.4,3.7-8.9c0-3.6-1.2-6.5-3.7-8.9C481.1,16.7,478.1,15.5,474.4,15.5z M480.5,34.2
		c-1.7,1.7-3.7,2.6-6.1,2.6c-2.4,0-4.4-0.9-6.1-2.6c-1.7-1.7-2.5-3.8-2.5-6.2c0-2.4,0.8-4.5,2.5-6.2c1.7-1.7,3.7-2.6,6.1-2.6
		c2.4,0,4.4,0.9,6.1,2.6c1.7,1.7,2.5,3.8,2.5,6.2C483,30.4,482.2,32.5,480.5,34.2z"/>
	<polygon class="st0" points="504.2,33.4 496.7,15.3 492.1,15.3 501.9,40.3 506.5,40.3 516.2,15.3 511.6,15.3 	"/>
	<path class="st0" d="M529,15.3l-10.7,25h4.4l2.4-6h12.1l2.4,6h4.4l-10.7-25H529z M526.8,30.3l4.4-10l4.4,10H526.8z"/>
	<polygon class="st0" points="546.3,19.3 553.3,19.3 553.3,40.3 557.3,40.3 557.3,19.3 565.3,19.3 565.3,15.3 546.3,15.3 	"/>
	<path class="st0" d="M583.9,15.5c-3.6,0-6.6,1.2-9.1,3.6c-2.4,2.4-3.7,5.4-3.7,8.9c0,3.6,1.2,6.5,3.7,8.9c2.4,2.4,5.5,3.6,9.1,3.6
		c3.6,0,6.6-1.2,9.1-3.6c2.4-2.4,3.7-5.4,3.7-8.9c0-3.6-1.2-6.5-3.7-8.9C590.5,16.7,587.5,15.5,583.9,15.5z M590,34.2
		c-1.7,1.7-3.7,2.6-6.1,2.6c-2.4,0-4.4-0.9-6.1-2.6c-1.7-1.7-2.5-3.8-2.5-6.2c0-2.4,0.8-4.5,2.5-6.2c1.7-1.7,3.7-2.6,6.1-2.6
		c2.4,0,4.4,0.9,6.1,2.6c1.7,1.7,2.5,3.8,2.5,6.2C592.5,30.4,591.6,32.5,590,34.2z"/>
	<path class="st0" d="M624.6,23.9c0-2.7-0.8-5.1-2.4-6.4c-1.6-1.2-4.2-2.2-7.9-2.2h-8.9v25h4v-9h5.4l5.8,9h5.2l-6.3-8.8
		C622.9,30.5,624.6,27.9,624.6,23.9z M614.4,28.3h-5.1v-9h5.2c2.2,0,3.7,0.5,4.6,1.1c0.9,0.6,1.3,1.8,1.3,3.4c0,1.6-0.4,2.7-1.2,3.4
		C618.3,28,616.8,28.3,614.4,28.3z"/>
	<path class="st0" d="M648.8,28.6c-1.3-1.1-3.1-1.9-5.6-2.5c-2.5-0.6-4.1-1.2-4.9-1.7c-0.8-0.5-1.1-1.3-1.1-2.2c0-1,0.4-1.7,1.1-2.2
		c0.8-0.5,1.7-0.7,2.9-0.7c1.2,0,2.4,0.2,3.6,0.6c1.2,0.4,2.2,0.9,2.9,1.6l2.2-3.1c-1.1-0.9-2.4-1.6-3.9-2.1
		c-1.5-0.5-3.1-0.8-4.6-0.8c-2.4,0-4.4,0.6-6,1.8c-1.6,1.2-2.4,2.9-2.4,5.2c0,2.2,0.7,3.9,2.1,5c0.7,0.6,1.5,1,2.5,1.4
		c0.9,0.4,2.3,0.8,4.1,1.2c1.8,0.4,3,0.9,3.8,1.4c0.7,0.5,1.1,1.2,1.1,2.2c0,0.9-0.4,1.7-1.2,2.3c-0.8,0.6-1.8,0.8-3.1,0.8
		c-2.6,0-5.2-1.1-7.6-3.2l-2.6,3.1c2.9,2.6,6.3,3.9,10.1,3.9c2.6,0,4.7-0.7,6.3-2c1.6-1.3,2.4-3,2.4-5.1S650.1,29.7,648.8,28.6z"/>
</g>
</svg>
